<?xml version="1.0" encoding="UTF-8" standalone="no"?>
<!-- Created with Inkscape (http://www.inkscape.org/) -->

<svg
   width="12mm"
   height="9mm"
   viewBox="0 0 12 9"
   version="1.1"
   id="svg5"
   inkscape:version="1.1.2 (b8e25be833, 2022-02-05)"
   sodipodi:docname="print cmyk.svg"
   xmlns:inkscape="http://www.inkscape.org/namespaces/inkscape"
   xmlns:sodipodi="http://sodipodi.sourceforge.net/DTD/sodipodi-0.dtd"
   xmlns="http://www.w3.org/2000/svg"
   xmlns:svg="http://www.w3.org/2000/svg">
  <sodipodi:namedview
     id="namedview7"
     pagecolor="#505050"
     bordercolor="#eeeeee"
     borderopacity="1"
     inkscape:pageshadow="0"
     inkscape:pageopacity="0"
     inkscape:pagecheckerboard="0"
     inkscape:document-units="mm"
     showgrid="false"
     inkscape:zoom="14.493388"
     inkscape:cx="27.529795"
     inkscape:cy="25.390889"
     inkscape:window-width="2560"
     inkscape:window-height="1377"
     inkscape:window-x="-8"
     inkscape:window-y="-8"
     inkscape:window-maximized="1"
     inkscape:current-layer="layer1" />
  <defs
     id="defs2" />
  <g
     inkscape:label="Vrstva 1"
     inkscape:groupmode="layer"
     id="layer1">
    <path
       d="m 7.0366499,3.3648919 v -0.635 q 0.436562,-0.185208 0.892969,-0.277812 0.456406,-0.0926 0.959114,-0.0926 0.343959,0 0.6746875,0.05292 0.330729,0.05292 0.6482256,0.132291 v 0.582084 q -0.3174966,-0.119063 -0.6416116,-0.178594 -0.3241135,-0.05953 -0.6813015,-0.05953 -0.502708,0 -0.965729,0.125677 -0.463021,0.125677 -0.886354,0.350572 z m 0,2.910417 v -0.648229 q 0.436562,-0.185209 0.892969,-0.271198 0.456406,-0.08599 0.959114,-0.08599 0.343959,0 0.6746875,0.05292 0.330729,0.05292 0.6482256,0.132291 v 0.582084 q -0.3174966,-0.119063 -0.6416116,-0.178594 -0.3241135,-0.05953 -0.6813015,-0.05953 -0.502708,0 -0.965729,0.119062 -0.463021,0.119063 -0.886354,0.357188 z m 0,-1.455208 v -0.635 q 0.436562,-0.185209 0.892969,-0.277813 0.456406,-0.0926 0.959114,-0.0926 0.343959,0 0.6746875,0.05292 0.330729,0.05292 0.6482256,0.132291 v 0.582084 q -0.3174966,-0.119063 -0.6416116,-0.178594 -0.3241135,-0.05953 -0.6813015,-0.05953 -0.502708,0 -0.965729,0.125677 -0.463021,0.125677 -0.886354,0.350573 z m -4.1275,2.169583 q 0.714375,0 1.382448,0.165364 0.668073,0.165365 1.316302,0.496094 v -5.648854 q -0.595313,-0.396875 -1.289844,-0.615156 -0.694531,-0.218281 -1.408906,-0.218281 -0.502708,0 -0.985573,0.125677 -0.482865,0.125677 -0.97234396,0.310885 v 5.741458 q 0.41010396,-0.185208 0.93265696,-0.271198 0.522552,-0.08599 1.02526,-0.085989 z m 3.4925,0.661458 q 0.661458,-0.330729 1.296458,-0.496094 0.635,-0.165364 1.349375,-0.165364 0.5027085,0 1.0384901,0.07937 0.535783,0.07937 0.919423,0.211667 V 1.6054079 Q 10.555606,1.3805119 10.0529,1.2746789 9.5501914,1.1688459 9.0474829,1.1688459 q -0.714375,0 -1.382448,0.218281 -0.668073,0.218281 -1.263385,0.615156 z m -0.396875,1.190625 q -0.674688,-0.502708 -1.468438,-0.773906 -0.79375,-0.271198 -1.627187,-0.271198 -0.489479,0 -0.9525,0.119063 -0.463021,0.119062 -0.926042,0.291041 -0.30427096,0.145521 -0.58869797,-0.03969 -0.284427,-0.185209 -0.284427,-0.529167 v -6.125104 q 0,-0.198438 0.09261,-0.363802 0.0926,-0.16536501 0.27781201,-0.25796901 0.55562496,-0.264583 1.15755196,-0.39026 0.601927,-0.125677 1.223698,-0.125677 0.833437,0 1.620573,0.224895 0.787135,0.224896 1.475052,0.68791701 0.674687,-0.46302101 1.448594,-0.68791701 0.773906,-0.224895 1.594114,-0.224895 0.6217705,0 1.2170881,0.125677 0.59531,0.125677 1.15094,0.39026 0.18521,0.0926 0.28443,0.25796901 0.0992,0.165364 0.0992,0.363802 v 6.125104 q 0,0.370417 -0.29766,0.56224 -0.29766,0.191823 -0.5887,0.0066 -0.44979,-0.185204 -0.9128176,-0.297652 -0.463022,-0.112448 -0.9525005,-0.112448 -0.833437,0 -1.600729,0.277813 -0.767292,0.277812 -1.441979,0.767291 z m -2.725208,-4.352396 z"
       id="path9"
       style="stroke-width:0.264583" />
    <path
       style="fill:#00ffff;stroke-width:0.0129085"
       d="M 7.0432725,3.042873 V 2.7337444 l 0.1323128,-0.051988 c 0.3608414,-0.1417796 0.7588488,-0.2395881 1.1779038,-0.28947 0.19,-0.022622 0.8617876,-0.022675 1.0262315,-9.53e-5 0.2463428,0.033827 0.6876864,0.1174644 0.8035584,0.152281 0.02061,0.00619 0.02259,0.031422 0.02259,0.2890863 V 3.1158583 L 10.092923,3.077663 C 9.9546764,3.0309112 9.6579984,2.9566929 9.5060374,2.9308431 9.1853418,2.8762913 8.6646233,2.8724522 8.3384661,2.9222441 7.9088198,2.9878238 7.5250973,3.1146862 7.0529589,3.3472417 c -0.00532,0.00265 -0.00968,-0.1343369 -0.00968,-0.3043582 z"
       id="path1406" />
    <path
       style="fill:#ff00ff;stroke-width:0.0129085"
       d="M 7.0432725,4.4990285 V 4.1892517 l 0.048406,-0.020294 C 7.2252688,4.1129247 7.4703047,4.0306763 7.6435195,3.9837286 8.0538856,3.8725057 8.4148989,3.8265423 8.8762873,3.8267752 9.2729268,3.8269736 9.6027484,3.8664942 10.04451,3.9667556 l 0.154903,0.035155 0.0035,0.284644 0.0035,0.2846414 -0.126098,-0.042114 C 9.8250724,4.4438576 9.5455874,4.3842734 9.2666218,4.355619 9.0759233,4.3360399 8.5282094,4.3474169 8.349568,4.3746955 7.9546589,4.4349887 7.499393,4.5798799 7.1433115,4.7585953 l -0.1000417,0.050207 z"
       id="path1673" />
    <path
       style="fill:#ffff00;stroke-width:0.0129085"
       d="m 7.0462702,5.9420289 0.00347,-0.3122427 0.077451,-0.03148 c 0.5220282,-0.21218 1.0827279,-0.3149362 1.729748,-0.317 0.4129219,-0.00132 0.6704332,0.028662 1.1585408,0.1348873 l 0.190403,0.041434 v 0.2821464 c 0,0.1551808 -0.0037,0.2821464 -0.0082,0.2821464 -0.0045,0 -0.05822,-0.017092 -0.119407,-0.037994 C 9.8545394,5.9075008 9.6188214,5.8540523 9.3552704,5.8199766 9.1557561,5.7941798 8.6590829,5.7908645 8.4632224,5.8140235 c -0.452501,0.053507 -0.8305932,0.1618933 -1.2248409,0.351118 -0.1021344,0.049022 -0.1879176,0.089133 -0.1906296,0.089133 -0.0027,0 -0.00336,-0.1405096 -0.00159,-0.3122454 z"
       id="path1866" />
  </g>
</svg>
