<?xml version="1.0" encoding="UTF-8" standalone="no"?>
<!-- Created with Inkscape (http://www.inkscape.org/) -->

<svg
   width="12mm"
   height="9mm"
   viewBox="0 0 12 9"
   version="1.1"
   id="svg5"
   sodipodi:docname="print gray.svg"
   inkscape:version="1.1.2 (b8e25be833, 2022-02-05)"
   xmlns:inkscape="http://www.inkscape.org/namespaces/inkscape"
   xmlns:sodipodi="http://sodipodi.sourceforge.net/DTD/sodipodi-0.dtd"
   xmlns="http://www.w3.org/2000/svg"
   xmlns:svg="http://www.w3.org/2000/svg">
  <sodipodi:namedview
     id="namedview7"
     pagecolor="#505050"
     bordercolor="#eeeeee"
     borderopacity="1"
     inkscape:pageshadow="0"
     inkscape:pageopacity="0"
     inkscape:pagecheckerboard="0"
     inkscape:document-units="mm"
     showgrid="false"
     inkscape:zoom="20.496745"
     inkscape:cx="37.371787"
     inkscape:cy="15.075564"
     inkscape:window-width="2560"
     inkscape:window-height="1377"
     inkscape:window-x="-8"
     inkscape:window-y="-8"
     inkscape:window-maximized="1"
     inkscape:current-layer="layer1" />
  <defs
     id="defs2" />
  <g
     inkscape:label="Vrstva 1"
     inkscape:groupmode="layer"
     id="layer1">
    <path
       d="m 7.052845,3.2704808 v -0.635 q 0.436562,-0.185208 0.892969,-0.277812 0.456406,-0.0926 0.959114,-0.0926 0.343959,0 0.674688,0.05292 0.3307288,0.05292 0.648225,0.132291 v 0.582084 Q 9.9103448,2.9133008 9.58623,2.8537698 q -0.324114,-0.05953 -0.681302,-0.05953 -0.502708,0 -0.965729,0.125677 -0.463021,0.125677 -0.886354,0.350572 z m 0,2.910417 v -0.648229 q 0.436562,-0.185209 0.892969,-0.271198 0.456406,-0.08599 0.959114,-0.08599 0.343959,0 0.674688,0.05292 0.3307288,0.05292 0.648225,0.132291 v 0.582084 Q 9.9103448,5.8237128 9.58623,5.7641818 q -0.324114,-0.05953 -0.681302,-0.05953 -0.502708,0 -0.965729,0.119062 -0.463021,0.119063 -0.886354,0.357188 z m 0,-1.455208 v -0.635 q 0.436562,-0.185209 0.892969,-0.277813 0.456406,-0.0926 0.959114,-0.0926 0.343959,0 0.674688,0.05292 0.3307288,0.05292 0.648225,0.132291 v 0.582084 Q 9.9103448,4.3685088 9.58623,4.3089778 q -0.324114,-0.05953 -0.681302,-0.05953 -0.502708,0 -0.965729,0.125677 -0.463021,0.125677 -0.886354,0.350573 z m -4.1275,2.169583 q 0.714375,0 1.382448,0.165364 0.668073,0.165365 1.316302,0.496094 V 1.9078768 Q 5.028782,1.5110018 4.334251,1.2927208 3.63972,1.0744398 2.925345,1.0744398 q -0.502708,0 -0.985573,0.125677 -0.482865,0.125677 -0.972344,0.310885 v 5.741458 q 0.410104,-0.185208 0.932657,-0.271198 0.522552,-0.08599 1.02526,-0.085989 z m 3.4925,0.661458 q 0.661458,-0.330729 1.296458,-0.496094 0.635,-0.165364 1.349375,-0.165364 0.502709,0 1.03849,0.07937 0.535783,0.07937 0.919423,0.211667 v -5.675313 q -0.44979,-0.224896 -0.952496,-0.330729 -0.502708,-0.105833 -1.005417,-0.105833 -0.714375,0 -1.382448,0.218281 -0.668073,0.218281 -1.263385,0.615156 z M 6.02097,8.7473558 Q 5.346282,8.2446478 4.552532,7.9734498 3.758782,7.7022518 2.925345,7.7022518 q -0.489479,0 -0.9525,0.119063 -0.463021,0.119062 -0.926042,0.291041 -0.30427097,0.145521 -0.58869797,-0.03969 -0.284427,-0.185209 -0.284427,-0.529167 v -6.125104 q 0,-0.198438 0.09261,-0.363802 0.0926,-0.16536504 0.277812,-0.25796904 0.55562497,-0.264583 1.15755197,-0.39026 0.601927,-0.125677 1.223698,-0.125677 0.833437,0 1.620573,0.224895 0.787135,0.224896 1.475052,0.68791704 0.674687,-0.46302104 1.448594,-0.68791704 0.773906,-0.224895 1.594114,-0.224895 0.621771,0 1.217088,0.125677 0.59531,0.125677 1.15094,0.39026 0.18521,0.0926 0.28443,0.25796904 0.0992,0.165364 0.0992,0.363802 v 6.125104 q 0,0.370417 -0.29766,0.56224 -0.29766,0.191823 -0.5887,0.0066 -0.44979,-0.185204 -0.912817,-0.297652 -0.463022,-0.112448 -0.952501,-0.112448 -0.833437,0 -1.600729,0.277813 -0.767292,0.277812 -1.441979,0.767291 z M 3.295762,4.3949598 Z"
       id="path9"
       style="stroke-width:0.264583" />
    <path
       style="fill:#999999;stroke-width:0.0129085"
       d="m 7.0624654,5.8476178 0.00347,-0.3122427 0.077451,-0.03148 C 7.6654111,5.291715 8.2261108,5.1889587 8.8731308,5.186895 c 0.412922,-0.00132 0.670433,0.028662 1.1585422,0.1348872 l 0.190402,0.041434 v 0.2821463 c 0,0.1551808 -0.0037,0.2821464 -0.0081,0.2821464 -0.0045,0 -0.05822,-0.017092 -0.119407,-0.037994 C 9.8707348,5.8130897 9.635017,5.7596412 9.3714656,5.7255655 9.1719512,5.6997686 8.675278,5.6964534 8.4794176,5.7196124 8.0269166,5.7731191 7.6488244,5.8815056 7.2545767,6.0707303 7.1524422,6.1197523 7.066659,6.1598633 7.063947,6.1598633 c -0.0027,0 -0.00336,-0.1405097 -0.00159,-0.3122454 z"
       id="path3549" />
    <path
       style="fill:#4d4d4d;stroke-width:0.0129085"
       d="M 7.0594676,4.4046173 V 4.0948405 l 0.048406,-0.020294 C 7.2414639,4.0185135 7.4864998,3.9362652 7.6597146,3.8893175 8.0700807,3.7780946 8.4310941,3.7321312 8.8924824,3.732364 9.2891219,3.7325625 9.6189436,3.772083 10.060705,3.8723445 l 0.154903,0.035155 0.0035,0.284644 0.0035,0.2846414 -0.126097,-0.042114 C 9.8412678,4.3494464 9.561783,4.2898623 9.2828169,4.2612079 9.0921185,4.2416287 8.5444045,4.2530058 8.3657632,4.2802843 7.970854,4.3405776 7.5155881,4.4854687 7.1595066,4.6641842 L 7.059465,4.7143912 Z"
       id="path3779" />
  </g>
</svg>
